HIERARCHY
ROOT Hips
{
	OFFSET 0.000000 0.000000 0.000000 
	CHANNELS 6 Xposition Yposition Zposition Zrotation Yrotation Xrotation
	JOINT LeftUpLeg
	{
		OFFSET 1.363060 -1.794630 0.839290 
		CHANNELS 3 Zrotation Yrotation Xrotation
		JOINT LeftLeg
		{
			OFFSET 2.448110 -6.726130 0.000000 
			CHANNELS 3 Zrotation Yrotation Xrotation
			JOINT LeftFoot
			{
				OFFSET 2.562200 -7.039590 0.000000 
				CHANNELS 3 Zrotation Yrotation Xrotation
				JOINT LeftToeBase
				{
					OFFSET 0.157640 -0.433110 2.322550 
					CHANNELS 3 Zrotation Yrotation Xrotation
					End Site
					{
						OFFSET 0.000000 0.000000 0.000000 
					}
				}
			}
		}
	}
	JOINT RightUpLeg
	{
		OFFSET -1.305520 -1.794630 0.839290 
		CHANNELS 3 Zrotation Yrotation Xrotation
		JOINT RightLeg
		{
			OFFSET -2.542530 -6.985550 0.000000 
			CHANNELS 3 Zrotation Yrotation Xrotation
			JOINT RightFoot
			{
				OFFSET -2.568260 -7.056230 0.000000 
				CHANNELS 3 Zrotation Yrotation Xrotation
				JOINT RightToeBase
				{
					OFFSET -0.164730 -0.452590 2.363150 
					CHANNELS 3 Zrotation Yrotation Xrotation
					End Site
					{
						OFFSET 0.000000 0.000000 0.000000 
					}
				}
			}
		}
	}
	JOINT Spine
	{
		OFFSET 0.028270 2.035590 -0.193380 
		CHANNELS 3 Zrotation Yrotation Xrotation
		JOINT Spine1
		{
			OFFSET 0.056720 2.048850 -0.042750 
			CHANNELS 3 Zrotation Yrotation Xrotation
			JOINT Neck1
			{
				OFFSET -0.054170 1.746240 0.172020 
				CHANNELS 3 Zrotation Yrotation Xrotation
				JOINT Head
				{
					OFFSET 0.104070 1.761360 -0.123970 
					CHANNELS 3 Zrotation Yrotation Xrotation
					End Site
					{
						OFFSET 0.000000 0.000000 0.000000 
					}
				}
			}
			JOINT LeftArm
			{
				OFFSET 3.362410 1.200890 -0.311210 
				CHANNELS 3 Zrotation Yrotation Xrotation
				JOINT LeftForeArm
				{
					OFFSET 4.983000 -0.000000 -0.000000 
					CHANNELS 3 Zrotation Yrotation Xrotation
					JOINT LeftHand
					{
						OFFSET 3.483560 -0.000000 -0.000000 
						CHANNELS 3 Zrotation Yrotation Xrotation
						JOINT LeftHandIndex1
						{
							OFFSET 0.715260 -0.000000 -0.000000 
							CHANNELS 3 Zrotation Yrotation Xrotation
							End Site
							{
								OFFSET 0.000000 0.000000 0.000000 
							}
						}
					}
				}
			}
			JOINT RightArm
			{
				OFFSET -3.136600 1.374050 -0.404650 
				CHANNELS 3 Zrotation Yrotation Xrotation
				JOINT RightForeArm
				{
					OFFSET -5.241900 -0.000000 -0.000000 
					CHANNELS 3 Zrotation Yrotation Xrotation
					JOINT RightHand
					{
						OFFSET -3.444170 -0.000000 -0.000000 
						CHANNELS 3 Zrotation Yrotation Xrotation
						JOINT RightHandIndex1
						{
							OFFSET -0.622530 -0.000000 -0.000000 
							CHANNELS 3 Zrotation Yrotation Xrotation
							End Site
							{
								OFFSET 0.000000 0.000000 0.000000 
							}
						}
					}
				}
			}
		}
	}
}
MOTION
Frames: 10
Frame Time: 0.041667
3.312454 13.783931 -5.568590 161.385432 82.090991 -174.612162 -19.861723 -9.072110 -70.227729 21.417782 23.065340 93.743924 1.974638 1.011923 -25.367945 2.971900 -10.649400 -31.106400 7.433501 12.462880 -85.266919 -20.279152 -22.535114 90.264884 -1.749320 2.835395 -21.860674 -0.313900 -3.601900 9.959200 0.928742 6.671284 2.845386 -1.919342 4.082253 -0.934166 -7.990022 11.300751 -15.165339 -6.762900 5.480800 -8.090700 -55.422497 -0.621016 15.827411 75.533173 -54.651901 -56.209839 0.542634 -1.406614 -16.537950 -7.125000 0.000000 0.000000 14.686923 33.764139 -5.726071 -100.761470 59.405583 -75.078111 -0.308724 0.874070 9.910268 7.125000 0.000000 0.000000 
3.381044 13.762898 -5.525902 160.651199 81.901839 -175.449276 -19.766300 -8.922532 -70.138904 21.588949 23.050451 94.214716 1.946008 0.943595 -25.118463 3.057300 -10.787200 -31.565400 7.457233 12.511437 -85.072450 -20.458734 -22.532338 90.759597 -1.814539 2.860799 -22.344247 -0.309800 -3.578500 9.893900 0.939134 6.649415 2.845428 -1.898658 4.075927 -0.941816 -7.991670 11.280826 -15.120353 -6.766000 5.470000 -8.064600 -55.628139 -0.512901 15.900135 75.476691 -54.643960 -56.128216 0.540050 -1.398353 -16.511570 -7.125000 0.000000 0.000000 14.707660 33.762889 -5.518368 -100.674206 59.397705 -74.987950 -0.308306 0.872433 9.913225 7.125000 0.000000 0.000000 
3.450360 13.743419 -5.482696 159.914511 81.730785 -176.289056 -19.667673 -8.756209 -70.053805 21.760508 23.034484 94.686196 1.914601 0.856462 -24.832849 3.123700 -10.892700 -31.918900 7.471852 12.609789 -84.853323 -20.629953 -22.527449 91.231952 -1.880789 2.842608 -22.860107 -0.299300 -3.517900 9.724000 0.949311 6.636530 2.846750 -1.874280 4.073095 -0.949056 -7.996578 11.257522 -15.075933 -6.769700 5.458800 -8.040000 -55.850462 -0.395955 15.974843 75.403288 -54.632810 -56.028214 0.536967 -1.389668 -16.485711 -7.125000 0.000000 0.000000 14.724166 33.770060 -5.314677 -100.605852 59.390495 -74.911179 -0.308394 0.870504 9.916188 7.125000 0.000000 0.000000 
3.520298 13.725494 -5.438869 159.199458 81.576049 -177.110384 -19.560947 -8.572119 -69.980445 21.934120 23.017032 95.164037 1.875602 0.773738 -24.500025 3.181200 -10.982800 -32.221800 7.485056 12.754841 -84.608755 -20.792252 -22.520770 91.679912 -1.948136 2.785566 -23.403964 -0.283900 -3.426700 9.469000 0.959201 6.632821 2.849509 -1.847920 4.073769 -0.955175 -8.001194 11.227295 -15.032883 -6.771700 5.445700 -8.018200 -56.085597 -0.272169 16.050191 75.311688 -54.618230 -55.909183 0.533288 -1.380750 -16.461919 -7.125000 0.000000 0.000000 14.729426 33.786242 -5.119745 -100.545030 59.385728 -74.838618 -0.308777 0.868252 9.916137 7.125000 0.000000 0.000000 
3.591168 13.709642 -5.394627 158.532141 81.432404 -177.882136 -19.436099 -8.374700 -69.925832 22.113015 22.998281 95.655998 1.829024 0.679470 -24.102465 3.224600 -11.050000 -32.448600 7.506636 12.938224 -84.337091 -20.944258 -22.512498 92.100030 -2.016098 2.692918 -23.967949 -0.264700 -3.310000 9.143200 0.968468 6.635659 2.853625 -1.823240 4.077727 -0.957352 -7.999151 11.189168 -14.986442 -6.767200 5.430500 -7.996800 -56.326444 -0.141537 16.126347 75.200323 -54.600105 -55.769610 0.528715 -1.371968 -16.442278 -7.125000 0.000000 0.000000 14.728149 33.812166 -4.933535 -100.485106 59.382709 -74.765634 -0.309250 0.865742 9.912910 7.125000 0.000000 0.000000 
3.662660 13.695654 -5.349867 157.910452 81.290234 -178.606460 -19.288463 -8.175178 -69.903202 22.300556 22.977728 96.172481 1.770445 0.579690 -23.614187 3.256600 -11.099300 -32.615400 7.536868 13.146689 -84.042272 -21.086357 -22.503296 92.492865 -2.084585 2.577466 -24.543606 -0.244700 -3.183100 8.788900 0.976701 6.637671 2.858299 -1.805636 4.082335 -0.958667 -7.994787 11.144739 -14.944154 -6.760900 5.413000 -7.979900 -56.568952 -0.002847 16.198946 75.066004 -54.577721 -55.606753 0.522890 -1.363865 -16.427740 -7.125000 0.000000 0.000000 14.731750 33.850973 -4.749450 -100.417338 59.379553 -74.685525 -0.309410 0.862816 9.916808 7.125000 0.000000 0.000000 
3.735084 13.683739 -5.304899 157.347203 81.138296 -179.270324 -19.109462 -7.986147 -69.922508 22.500754 22.955408 96.723955 1.697004 0.468460 -23.005235 3.273400 -11.125000 -32.702600 7.580451 13.365366 -83.723652 -21.219333 -22.493554 92.860548 -2.153701 2.447123 -25.123976 -0.224400 -3.049500 8.416500 0.984174 6.634075 2.863176 -1.796630 4.085935 -0.957265 -7.986999 11.097240 -14.900659 -6.751900 5.394300 -7.962800 -56.808883 0.145055 16.269006 74.908919 -54.551459 -55.421282 0.515504 -1.356350 -16.417174 -7.125000 0.000000 0.000000 14.736642 33.901884 -4.571982 -100.329326 59.377257 -74.589111 -0.309077 0.859757 9.918314 7.125000 0.000000 0.000000 
3.808441 13.673481 -5.259621 156.856233 80.972271 -179.855653 -18.888560 -7.815903 -70.004316 22.718837 22.930649 97.325266 1.607468 0.336389 -22.250193 3.268600 -11.117700 -32.677800 7.639570 13.587801 -83.389098 -21.344706 -22.483310 93.207542 -2.223631 2.306602 -25.707832 -0.205100 -2.915800 8.044500 0.991893 6.624418 2.867989 -1.792795 4.087806 -0.954541 -7.979931 11.049096 -14.862265 -6.744200 5.375100 -7.948900 -57.048200 0.302772 16.335991 74.721663 -54.519429 -55.206641 0.506969 -1.349000 -16.415224 -7.125000 0.000000 0.000000 14.745805 33.963163 -4.398875 -100.219341 59.375291 -74.475196 -0.308150 0.856624 9.926126 7.125000 0.000000 0.000000 
3.882627 13.664364 -5.214136 156.449513 80.790063 179.652669 -18.619174 -7.668710 -70.167014 22.958199 22.902809 97.986406 1.497546 0.209130 -21.328501 3.245500 -11.082200 -32.557600 7.716917 13.809061 -83.045245 -21.464216 -22.472942 93.537931 -2.296748 2.168238 -26.302854 -0.189300 -2.801900 7.727700 0.999564 6.605555 2.872110 -1.797476 4.086752 -0.949762 -7.976360 11.005880 -14.823982 -6.740100 5.357000 -7.933200 -57.283811 0.472747 16.396141 74.510021 -54.483278 -54.969659 0.497699 -1.341751 -16.424524 -7.125000 0.000000 0.000000 14.766166 34.034557 -4.223028 -100.089290 59.372099 -74.345206 -0.306646 0.853313 9.939515 7.125000 0.000000 0.000000 
3.957538 13.655764 -5.168754 156.127897 80.591444 179.254689 -18.300431 -7.546403 -70.423568 23.220700 22.871043 98.713444 1.363970 0.114662 -20.225501 3.205100 -11.019800 -32.346800 7.813815 14.024478 -82.696199 -21.579401 -22.462314 93.856478 -2.371649 2.022231 -26.904598 -0.174700 -2.692600 7.424100 1.008224 6.580712 2.875445 -1.806094 4.083672 -0.946114 -7.977155 10.963283 -14.793985 -6.740900 5.338300 -7.922500 -57.519390 0.654529 16.454228 74.276941 -54.443384 -54.713080 0.488102 -1.333964 -16.444923 -7.125000 0.000000 0.000000 14.783746 34.108909 -4.053555 -99.939116 59.370126 -74.199445 -0.304745 0.850092 9.948978 7.125000 0.000000 0.000000 
